#!OML:ASF F:\VICON\USERDATA\INSTALL\rory3\rory3.ASF
:FULLY-SPECIFIED
:DEGREES
106
root 5.31314 17.8726 -10.2101 -2.63977 -0.871144 2.23973
lowerback 11.6677 -0.512106 -2.89666
upperback 0.821695 -1.00526 0.911015
thorax -5.61881 -0.412017 2.75583
lowerneck -15.9203 -2.66569 -1.66978
upperneck 22.1906 -3.18665 -0.445899
head 9.67545 -1.67488 -0.288173
rclavicle 1.13556e-014 3.97569e-016
rhumerus -30.528 -16.4415 -80.3578
rradius 28.4884
rwrist 1.47043
rhand -17.4456 23.3133
rfingers 7.12502
rthumb 8.80536 -6.48297
lclavicle 1.13556e-014 3.97569e-016
lhumerus -28.8725 -3.98227 83.5179
lradius 33.4199
lwrist 5.3379
lhand -27.6396 18.3335
lfingers 7.12502
lthumb -1.03782 48.3108
rfemur -32.5049 -0.320333 19.552
rtibia 56.2575
rfoot -8.88391 -8.09775
rtoes -0.347168
lfemur -1.39092 -1.73835 -28.4657
ltibia 26.7398
lfoot -17.806 1.32809
ltoes -1.01261
107
root 5.31157 17.8746 -10.0379 -2.52738 -0.993366 2.18747
lowerback 11.7337 -0.55282 -2.97093
upperback 0.654656 -1.06519 1.03541
thorax -5.82449 -0.431743 2.94256
lowerneck -15.6247 -2.5446 -1.87789
upperneck 22.1521 -3.00938 -0.283333
head 9.6121 -1.59261 -0.169658
rclavicle -4.07509e-015 3.57812e-015
rhumerus -30.9185 -16.3752 -80.1796
rradius 28.3002
rwrist 1.62102
rhand -17.0235 23.9569
rfingers 7.12502
rthumb 9.21267 -5.82189
lclavicle -4.07509e-015 3.57812e-015
lhumerus -29.0073 -4.12577 83.4584
lradius 34.1186
lwrist 5.54116
lhand -27.1771 21.5914
lfingers 7.12502
lthumb -0.591146 51.5704
rfemur -32.8327 -0.20796 19.6994
rtibia 53.5706
rfoot -7.63434 -8.45025
rtoes -3.16442
lfemur -0.555791 -1.33874 -28.3792
ltibia 25.9197
lfoot -18.1524 0.858493
ltoes -0.988885
108
root 5.31038 17.8784 -9.85927 -2.35125 -1.01573 2.01626
lowerback 11.5656 -0.704185 -2.90497
upperback 0.570376 -1.24445 1.18831
thorax -5.80449 -0.518949 3.09287
lowerneck -15.3381 -2.41479 -2.03784
upperneck 21.929 -2.79643 -0.268363
head 9.48146 -1.5061 -0.104883
rclavicle 1.29955e-014 7.95139e-015
rhumerus -31.0949 -16.1208 -80.1455
rradius 28.0545
rwrist 1.78391
rhand -16.8838 24.6491
rfingers 7.12502
rthumb 9.34744 -5.12368
lclavicle 1.29955e-014 7.95139e-015
lhumerus -29.0514 -4.09879 83.29
lradius 34.7435
lwrist 5.91915
lhand -28.2029 22.318
lfingers 7.12502
lthumb -1.58187 52.2918
rfemur -33.0793 -0.219275 19.9792
rtibia 50.6457
rfoot -6.14387 -8.62532
rtoes -5.27852
lfemur 0.120957 -1.26696 -28.205
ltibia 25.0908
lfoot -17.8504 0.699708
ltoes 0.344552
109
root 5.30921 17.8726 -9.68432 -2.20016 -0.855989 2.12688
lowerback 11.2585 -0.756838 -2.87904
upperback 0.675228 -1.30912 1.06669
thorax -5.52041 -0.560283 2.95051
lowerneck -15.4494 -2.50694 -1.92838
upperneck 21.8475 -2.95702 -0.240298
head 9.47347 -1.56795 -0.134575
rclavicle 2.1096e-014 -7.95139e-015
rhumerus -31.0716 -16.5344 -80.2227
rradius 27.8086
rwrist 1.88503
rhand -17.007 24.7057
rfingers 7.12502
rthumb 9.22859 -5.07236
lclavicle 2.1096e-014 -7.95139e-015
lhumerus -28.659 -4.57154 83.0341
lradius 35.4439
lwrist 6.28458
lhand -28.741 23.4005
lfingers 7.12502
lthumb -2.10156 53.3699
rfemur -33.1022 -0.182118 19.8928
rtibia 47.5435
rfoot -5.03442 -8.98022
rtoes -6.4613
lfemur 0.934806 -1.35195 -28.3697
ltibia 24.1979
lfoot -17.2806 0.830185
ltoes 1.97589
110
root 5.30457 17.8758 -9.51272 -2.12346 -0.770286 2.11467
lowerback 11.0668 -0.722533 -2.80184
upperback 0.892646 -1.2523 0.967569
thorax -5.19207 -0.544597 2.78551
lowerneck -15.9389 -2.60894 -1.73771
upperneck 21.876 -3.1675 -0.119323
head 9.57489 -1.63425 -0.158583
rclavicle -9.44227e-015 1.19271e-015
rhumerus -30.8278 -17.2714 -80.3005
rradius 27.4693
rwrist 1.93467
rhand -16.7638 26.3928
rfingers 7.12502
rthumb 9.46325 -3.37474
lclavicle -9.44227e-015 1.19271e-015
lhumerus -27.8502 -5.28418 82.7993
lradius 36.0317
lwrist 6.73502
lhand -28.5758 23.359
lfingers 7.12502
lthumb -1.94207 53.3299
rfemur -32.9444 0.0434372 19.9035
rtibia 44.313
rfoot -3.82305 -9.42096
rtoes -9.19434
lfemur 2.0075 -1.07294 -28.3613
ltibia 23.3053
lfoot -17.545 0.704288
ltoes 0.30122
111
root 5.29818 17.8787 -9.33673 -2.02601 -0.852375 2.17311
lowerback 10.9126 -0.74352 -2.92727
upperback 0.97202 -1.28922 0.993438
thorax -5.01672 -0.564378 2.884
lowerneck -16.1841 -2.58462 -1.79173
upperneck 21.9264 -3.11919 -0.0986677
head 9.63951 -1.61311 -0.140207
rclavicle 1.56046e-014 7.55382e-015
rhumerus -30.7001 -17.5545 -80.2518
rradius 26.8978
rwrist 1.95762
rhand -16.599 28.7766
rfingers 7.12502
rthumb 9.62221 -0.983679
lclavicle 1.56046e-014 7.55382e-015
lhumerus -27.3479 -5.49846 82.6357
lradius 36.4486
lwrist 6.97913
lhand -28.5106 24.5554
lfingers 7.12502
lthumb -1.87907 54.5269
rfemur -32.7321 0.502286 19.7959
rtibia 41.043
rfoot -2.49557 -9.58574
rtoes -11.7679
lfemur 3.14642 -0.738593 -28.4492
ltibia 22.4706
lfoot -17.3992 1.22079
ltoes 0.0656278
112
root 5.29333 17.8708 -9.15665 -1.9461 -0.906793 2.53788
lowerback 10.6886 -0.763465 -3.39181
upperback 0.971643 -1.36562 0.975281
thorax -4.87648 -0.595679 3.13304
lowerneck -15.879 -2.56734 -1.83624
upperneck 21.6972 -3.05702 -0.228077
head 9.5001 -1.60378 -0.163138
rclavicle 5.11871e-015 1.35174e-014
rhumerus -30.7802 -17.8252 -80.068
rradius 26.4942
rwrist 2.41057
rhand -17.1683 27.2682
rfingers 7.12502
rthumb 9.07291 -2.51667
lclavicle 5.11871e-015 1.35174e-014
lhumerus -27.218 -5.33503 82.4721
lradius 36.9669
lwrist 7.14059
lhand -28.3804 28.0453
lfingers 7.12502
lthumb -1.75326 58.0179
rfemur -32.4655 0.95606 19.2886
rtibia 37.8057
rfoot -1.39647 -9.60156
rtoes -12.0035
lfemur 4.19248 -0.409504 -28.839
ltibia 21.6458
lfoot -17.7946 0.860682
ltoes -0.946777
113
root 5.28737 17.867 -8.97843 -1.76192 -0.856474 2.71195
lowerback 10.5144 -0.82137 -3.64924
upperback 0.893521 -1.46785 0.976106
thorax -4.84685 -0.64041 3.29071
lowerneck -15.6635 -2.54989 -1.81161
upperneck 21.5894 -3.03072 -0.282321
head 9.42064 -1.59636 -0.178521
rclavicle 7.25564e-015 -6.36111e-015
rhumerus -31.0406 -17.9428 -79.9664
rradius 26.3766
rwrist 2.89832
rhand -17.8999 24.4172
rfingers 7.12502
rthumb 8.36696 -5.39705
lclavicle 7.25564e-015 -6.36111e-015
lhumerus -27.16 -5.47279 82.2884
lradius 37.439
lwrist 7.58785
lhand -28.0446 28.6109
lfingers 7.12502
lthumb -1.42896 58.5859
rfemur -32.2858 1.37504 18.9776
rtibia 34.6089
rfoot -0.583964 -9.93247
rtoes -15.0053
lfemur 5.10698 -0.31938 -29.0121
ltibia 20.7671
lfoot -17.2969 0.91155
ltoes 0.388872
114
root 5.28169 17.8597 -8.79301 -1.63977 -0.752847 2.89465
lowerback 10.4933 -0.867609 -3.87921
upperback 0.848181 -1.55547 0.987909
thorax -4.8691 -0.677505 3.44571
lowerneck -16.0285 -2.53977 -1.98187
upperneck 21.8547 -2.98089 -0.214834
head 9.58578 -1.57889 -0.128143
rclavicle 4.47266e-016 1.19271e-015
rhumerus -31.2827 -18.1308 -79.7571
rradius 26.2187
rwrist 3.22584
rhand -17.9393 23.3932
rfingers 7.12502
rthumb 8.3289 -6.42263
lclavicle 4.47266e-016 1.19271e-015
lhumerus -27.0735 -5.56833 82.1726
lradius 38.018
lwrist 8.12194
lhand -28.0389 26.264
lfingers 7.12502
lthumb -1.42345 56.239
rfemur -32.0359 1.80317 18.6377
rtibia 31.5101
rfoot -0.0188826 -10.63
rtoes -20.4664
lfemur 6.12598 -0.279338 -29.1995
ltibia 19.7912
lfoot -17.4714 0.606273
ltoes -1.05676
115
root 5.27324 17.8425 -8.60276 -1.4964 -0.817843 2.84258
lowerback 10.2365 -0.872524 -3.83526
upperback 0.829931 -1.54756 0.98304
thorax -4.74672 -0.677426 3.40758
lowerneck -16.0776 -2.55814 -1.89828
upperneck 21.8811 -3.00116 -0.324135
head 9.60103 -1.59382 -0.183412
rclavicle -1.78906e-015 -1.19271e-014
rhumerus -31.4454 -18.5637 -79.5986
rradius 25.8081
rwrist 3.54461
rhand -17.8775 24.6928
rfingers 7.12502
rthumb 8.38855 -5.12057
lclavicle -1.78906e-015 -1.19271e-014
lhumerus -26.8403 -5.80608 81.9648
lradius 38.3142
lwrist 8.55796
lhand -28.3562 25.6423
lfingers 7.12502
lthumb -1.72996 55.615
rfemur -31.7867 2.58086 18.4733
rtibia 28.4317
rfoot 0.559289 -11.2483
rtoes -24.8147
lfemur 7.01807 -0.243972 -29.1201
ltibia 18.7508
lfoot -16.8911 0.632937
ltoes -0.369615
116
root 5.26237 17.8338 -8.41756 -1.3879 -0.846023 2.94703
lowerback 10.0382 -0.894947 -3.97929
upperback 0.772416 -1.58942 0.931217
thorax -4.69022 -0.696209 3.43564
lowerneck -15.9377 -2.50801 -1.8007
upperneck 21.781 -2.95938 -0.327471
head 9.53744 -1.56707 -0.192462
rclavicle -4.91992e-015 -1.51076e-014
rhumerus -31.6012 -19.072 -79.4437
rradius 25.3481
rwrist 4.02678
rhand -17.6841 26.1796
rfingers 7.12502
rthumb 8.57516 -3.62624
lclavicle -4.91992e-015 -1.51076e-014
lhumerus -26.6185 -5.95911 81.7008
lradius 38.539
lwrist 8.81129
lhand -27.7896 26.3826
lfingers 7.12502
lthumb -1.18268 56.3591
rfemur -31.4768 3.59407 17.9867
rtibia 25.4564
rfoot 1.17993 -11.8432
rtoes -27.7836
lfemur 7.99524 -0.176662 -29.1849
ltibia 17.6858
lfoot -16.8278 0.233356
ltoes -2.11948
117
root 5.25239 17.8341 -8.23378 -1.33898 -0.636801 3.1854
lowerback 9.9544 -0.988998 -4.27125
upperback 0.729189 -1.74537 0.910447
thorax -4.6672 -0.767425 3.59793
lowerneck -15.9874 -2.43746 -1.85709
upperneck 21.8238 -2.85972 -0.267672
head 9.563 -1.51865 -0.150663
rclavicle 2.43511e-014 5.1684e-015
rhumerus -31.7307 -19.4739 -79.1578
rradius 24.7546
rwrist 4.48397
rhand -17.3409 24.3237
rfingers 7.12502
rthumb 8.90634 -5.46834
lclavicle 2.43511e-014 5.1684e-015
lhumerus -26.3832 -5.9903 81.5662
lradius 38.6744
lwrist 8.83724
lhand -26.4473 21.342
lfingers 7.12502
lthumb 0.113774 51.3217
rfemur -31.0478 4.70897 17.194
rtibia 22.6232
rfoot 2.08017 -12.6536
rtoes -30.8171
lfemur 9.06213 -0.285501 -29.378
ltibia 16.7345
lfoot -16.2485 0.0498495
ltoes -1.89296
118
root 5.23957 17.8238 -8.04427 -1.18096 -0.310403 3.46957
lowerback 9.60643 -1.09278 -4.63742
upperback 0.752925 -1.90762 0.895395
thorax -4.4215 -0.848075 3.79811
lowerneck -15.8275 -2.40236 -2.03891
upperneck 21.6322 -2.80492 -0.104327
head 9.47118 -1.48969 -0.0533138
rclavicle 8.05078e-015 -8.74653e-015
rhumerus -31.8098 -20.6397 -78.5599
rradius 24.0211
rwrist 5.66205
rhand -17.4134 22.7035
rfingers 7.12502
rthumb 8.8364 -7.09147
lclavicle 8.05078e-015 -8.74653e-015
lhumerus -26.1287 -5.94255 81.4602
lradius 38.8529
lwrist 8.59847
lhand -27.5588 28.707
lfingers 7.12502
lthumb -0.959797 58.6846
rfemur -30.7461 6.08434 16.1688
rtibia 20.0194
rfoot 3.0681 -13.783
rtoes -32.7006
lfemur 9.99456 -0.273139 -29.5269
ltibia 15.9371
lfoot -16.3166 -0.575237
ltoes -3.61204
